<?xml version="1.0" encoding="utf-8"?>
<!-- Generator: Adobe Illustrator 22.0.1, SVG Export Plug-In . SVG Version: 6.00 Build 0)  -->
<!DOCTYPE svg PUBLIC "-//W3C//DTD SVG 1.1//EN" "http://www.w3.org/Graphics/SVG/1.1/DTD/svg11.dtd">
<svg version="1.1" id="Layer_1" xmlns="http://www.w3.org/2000/svg" xmlns:xlink="http://www.w3.org/1999/xlink" x="0px" y="0px"
	 viewBox="0 0 283.5 133.2" style="enable-background:new 0 0 283.5 133.2;" xml:space="preserve">
<style type="text/css">
	.st0{fill:#FFFFFF;}
	.st1{clip-path:url(#SVGID_2_);fill:#FFFFFF;}
	.st2{clip-path:url(#SVGID_4_);fill:#FFFFFF;}
	.st3{clip-path:url(#SVGID_6_);fill:#FFFFFF;}
	.st4{clip-path:url(#SVGID_8_);fill:#FFFFFF;}
	.st5{clip-path:url(#SVGID_10_);fill:#FFFFFF;}
	.st6{clip-path:url(#SVGID_12_);fill:#FFFFFF;}
	.st7{clip-path:url(#SVGID_14_);fill:#FFFFFF;}
</style>
<g>
	<polygon class="st0" points="30.4,85.7 40.8,107.4 29.2,107.4 22.2,93.4 10.6,107.4 0,107.4 18.5,85.1 8.4,63.9 20,63.9 26.7,77.3 
		37.4,63.9 48.3,63.9 	"/>
	<polygon class="st0" points="81,71.9 62.2,71.9 60.4,81.4 78,81.4 76.7,89 59.1,89 57.1,99.5 76,99.5 74.6,107.4 44.7,107.4 
		52.5,63.9 82.4,63.9 	"/>
	<polygon class="st0" points="108.9,107.4 80.6,107.4 88.3,63.9 99.5,63.9 93.1,99.2 110.3,99.2 	"/>
	<polygon class="st0" points="149.2,71.9 130.4,71.9 128.6,81.4 146.2,81.4 144.9,89 127.3,89 125.4,99.5 144.2,99.5 142.8,107.4 
		112.9,107.4 120.7,63.9 150.6,63.9 	"/>
	<g>
		<path class="st0" d="M184.3,72c-2.9-0.2-7.1-0.5-10.7-0.5c-6.6,0-10,2.2-11.8,11.7l-0.9,5c-0.4,1.9-0.5,3.6-0.5,4.9
			c0,5.4,2.8,6.9,8.1,6.9c3.6,0,7.9-0.2,10.8-0.5l-1.3,7.9c-2.2,0.5-8.4,1.2-12.1,1.2c-10.5,0-16.7-3.9-16.7-14.5
			c0-2.1,0.2-4.3,0.7-6.8l0.9-5c3-15.6,10.6-19.2,23.2-19.2c3.7,0,9.6,0.6,11.7,1.2L184.3,72z"/>
		<polygon class="st0" points="224.5,71.9 211.8,71.9 205.5,107.4 194.4,107.4 200.7,71.9 188,71.9 189.4,63.9 225.9,63.9 		"/>
		<path class="st0" d="M3.8,130.1c-1.2,0-3.8-0.2-3.8-6.2c0-5.5,2.8-6.2,4.3-6.2c1.4,0,2.2,0.5,2.2,0.5v1.2c0,0-0.9-0.4-2.2-0.4
			c-1.2,0-2.8,0.8-2.8,5c0,4.5,1.4,5,2.4,5c0.8,0,1.6-0.3,1.6-0.3V124H3.8v-1.2h3v6.6C6.8,129.4,5.1,130.1,3.8,130.1"/>
		<polygon class="st0" points="9.5,130 9.5,117.9 14.4,117.9 14.4,119.1 10.9,119.1 10.9,122.9 14,122.9 14,124.1 10.9,124.1 
			10.9,128.7 14.4,128.7 14.4,130 		"/>
		<path class="st0" d="M21.3,130l-2.7-6.5c-0.5-1.3-1.2-3.1-1.2-3.1s0.2,1.8,0.2,3.5v6.2h-1.4v-12.1h1.3l2.6,6.2
			c0.6,1.4,1.1,3.3,1.1,3.3s-0.2-2.1-0.2-3.6v-5.9h1.4V130H21.3z"/>
		<polygon class="st0" points="25.3,130 25.3,117.9 30.2,117.9 30.2,119.1 26.7,119.1 26.7,122.9 29.8,122.9 29.8,124.1 26.7,124.1 
			26.7,128.7 30.2,128.7 30.2,130 		"/>
		<polygon class="st0" points="37,119.2 34.6,119.2 34.6,129.9 33.2,129.9 33.2,119.2 30.7,119.2 30.7,117.9 37.1,117.9 		"/>
		<rect x="38.2" y="117.9" class="st0" width="1.4" height="12.1"/>
		<path class="st0" d="M45.1,130.1c-1.6,0-3.3-0.9-3.3-6.2c0-5.3,2.1-6.2,3.5-6.2c1,0,1.5,0.3,1.5,0.3v1.2c0,0-0.6-0.3-1.6-0.3
			c-1,0-2.1,1.1-2.1,5c0,3.7,0.8,5,1.9,5c0.8,0,1.8-0.4,1.8-0.4v1.2C46.9,129.8,46,130.1,45.1,130.1"/>
		<path class="st0" d="M53.3,130.1c-0.9,0-1.7-0.3-1.7-0.3v-1.3c0,0,1,0.3,1.7,0.3c1,0,1.9-0.4,1.9-1.9c0-1.3-0.6-1.8-1.3-2.4
			l-1-0.9c-0.6-0.6-1.2-1.4-1.2-2.7c0-2.4,1.6-3.1,3-3.1c0.8,0,1.6,0.3,1.6,0.3v1.2c0,0-0.9-0.3-1.6-0.3c-0.9,0-1.6,0.6-1.6,1.8
			c0,1,0.5,1.6,1,2.1l0.9,0.9c0.8,0.7,1.5,1.6,1.5,3.2C56.6,129.7,54.7,130.1,53.3,130.1"/>
		<path class="st0" d="M61.3,130.1c-1.6,0-3.4-0.7-3.4-6.2c0-5.5,1.9-6.2,3.4-6.2c1.5,0,3.4,0.7,3.4,6.2
			C64.7,129.4,62.8,130.1,61.3,130.1 M61.3,118.7c-1.1,0-2,1.2-2,5.2c0,4.1,1,5.2,2,5.2c1,0,2-1.1,2-5.2
			C63.3,120,62.4,118.7,61.3,118.7"/>
		<polygon class="st0" points="70.7,130 66.7,130 66.7,117.9 68.1,117.9 68.1,128.7 70.9,128.7 		"/>
		<path class="st0" d="M75.1,130.1c-2,0-3-0.8-3-3.3v-9h1.4v9.2c0,1.3,0.5,1.9,1.6,1.9c1,0,1.6-0.5,1.6-1.9v-9.2h1.4v9
			C78.1,129.2,77,130.1,75.1,130.1"/>
		<polygon class="st0" points="85.6,119.2 83.3,119.2 83.3,129.9 81.9,129.9 81.9,119.2 79.4,119.2 79.4,117.9 85.8,117.9 		"/>
		<rect x="86.9" y="117.9" class="st0" width="1.4" height="12.1"/>
		<path class="st0" d="M93.8,130.1c-1.6,0-3.4-0.7-3.4-6.2c0-5.5,1.9-6.2,3.4-6.2c1.5,0,3.4,0.7,3.4,6.2
			C97.2,129.4,95.3,130.1,93.8,130.1 M93.8,118.7c-1.1,0-2,1.2-2,5.2c0,4.1,1,5.2,2,5.2c1,0,2-1.1,2-5.2
			C95.8,120,94.9,118.7,93.8,118.7"/>
		<path class="st0" d="M104.3,130l-2.7-6.5c-0.5-1.3-1.2-3.1-1.2-3.1s0.2,1.8,0.2,3.5v6.2h-1.4v-12.1h1.3l2.6,6.2
			c0.6,1.4,1.1,3.3,1.1,3.3s-0.2-2.1-0.2-3.6v-5.9h1.4V130H104.3z"/>
		<path class="st0" d="M109.3,130.1c-0.9,0-1.7-0.3-1.7-0.3v-1.3c0,0,1,0.3,1.7,0.3c1,0,1.9-0.4,1.9-1.9c0-1.3-0.6-1.8-1.3-2.4
			l-1-0.9c-0.6-0.6-1.2-1.4-1.2-2.7c0-2.4,1.6-3.1,3-3.1c0.8,0,1.6,0.3,1.6,0.3v1.2c0,0-0.9-0.3-1.6-0.3c-0.9,0-1.6,0.6-1.6,1.8
			c0,1,0.5,1.6,1,2.1l0.9,0.9c0.8,0.7,1.5,1.6,1.5,3.2C112.6,129.7,110.7,130.1,109.3,130.1"/>
		<polygon class="st0" points="123.1,119.2 119.8,119.2 119.8,122.9 122.9,122.9 122.9,124 119.8,124 119.8,129.9 118.4,129.9 
			118.4,117.9 123.2,117.9 		"/>
		<path class="st0" d="M127.6,130.1c-1.6,0-3.4-0.7-3.4-6.2c0-5.5,1.9-6.2,3.4-6.2c1.5,0,3.4,0.7,3.4,6.2
			C131,129.4,129.2,130.1,127.6,130.1 M127.6,118.7c-1.1,0-2,1.2-2,5.2c0,4.1,1,5.2,2,5.2c1,0,2-1.1,2-5.2
			C129.6,120,128.7,118.7,127.6,118.7"/>
		<path class="st0" d="M137.6,130l-0.7-3.1c-0.3-1.5-0.9-2-1.2-2.2c-0.4,0.1-0.9,0.1-1.2,0.1v5.2h-1.4v-12.1h2.2
			c2.4,0,3.7,0.7,3.7,3.3c0,1.8-0.8,2.7-2,3.2c0.7,0.5,1,1.2,1.2,2.2l0.9,3.4H137.6z M135.2,119h-0.7v4.7c1.9-0.1,3.1-0.3,3.1-2.6
			C137.6,119.4,137,119,135.2,119"/>
		<path class="st0" d="M149.8,129.9l-0.6-2.9h-3.4l-0.6,2.9h-1.5l3-12.1h1.6l3,12.1H149.8z M148.1,121.5c-0.2-1.2-0.5-2.8-0.5-2.8
			s-0.3,1.7-0.5,2.8l-0.9,4.4h2.9L148.1,121.5z"/>
		<path class="st0" d="M156.2,130.1l1.5,3.1h-1.9l-0.8-3.1c-1.4-0.2-2.8-1.3-2.8-6.2c0-5.5,1.9-6.2,3.4-6.2c1.5,0,3.4,0.8,3.4,6.2
			C159,128.7,157.6,129.9,156.2,130.1 M155.6,118.7c-1.1,0-2,1.1-2,5.2c0,4.1,1,5.2,2,5.2c1,0,2-1.1,2-5.2
			C157.6,120,156.7,118.7,155.6,118.7"/>
		<path class="st0" d="M164,130.1c-2,0-3-0.8-3-3.3v-9h1.4v9.2c0,1.3,0.5,1.9,1.6,1.9c1,0,1.6-0.5,1.6-1.9v-9.2h1.4v9
			C167,129.2,165.9,130.1,164,130.1"/>
		<path class="st0" d="M174.6,129.9l-0.6-2.9h-3.4l-0.6,2.9h-1.5l3-12.1h1.6l3,12.1H174.6z M172.9,121.5c-0.2-1.2-0.5-2.8-0.5-2.8
			s-0.3,1.7-0.5,2.8l-0.9,4.4h2.9L172.9,121.5z"/>
		<path class="st0" d="M180.3,130.1c-1.6,0-3.3-0.9-3.3-6.2c0-5.3,2.1-6.2,3.5-6.2c1,0,1.5,0.3,1.5,0.3v1.2c0,0-0.6-0.3-1.6-0.3
			c-1,0-2.1,1.1-2.1,5c0,3.7,0.8,5,1.9,5c0.8,0,1.8-0.4,1.8-0.4v1.2C182.1,129.8,181.1,130.1,180.3,130.1"/>
		<path class="st0" d="M186.7,130.1c-2,0-3-0.8-3-3.3v-9h1.4v9.2c0,1.3,0.5,1.9,1.6,1.9c1,0,1.6-0.5,1.6-1.9v-9.2h1.4v9
			C189.7,129.2,188.7,130.1,186.7,130.1"/>
		<polygon class="st0" points="196.4,130 192.4,130 192.4,117.9 193.8,117.9 193.8,128.7 196.6,128.7 		"/>
		<polygon class="st0" points="202.2,119.2 199.8,119.2 199.8,129.9 198.4,129.9 198.4,119.2 195.9,119.2 195.9,117.9 202.3,117.9 
					"/>
		<path class="st0" d="M206.3,130.1c-2,0-3-0.8-3-3.3v-9h1.4v9.2c0,1.3,0.5,1.9,1.6,1.9c1,0,1.6-0.5,1.6-1.9v-9.2h1.4v9
			C209.3,129.2,208.2,130.1,206.3,130.1"/>
		<path class="st0" d="M216.5,130l-0.7-3.1c-0.3-1.5-0.9-2-1.2-2.2c-0.4,0.1-0.9,0.1-1.2,0.1v5.2H212v-12.1h2.2
			c2.4,0,3.7,0.7,3.7,3.3c0,1.8-0.8,2.7-2,3.2c0.7,0.5,1,1.2,1.2,2.2l0.9,3.4H216.5z M214.1,119h-0.7v4.7c1.9-0.1,3.1-0.3,3.1-2.6
			C216.5,119.4,216,119,214.1,119"/>
		<polygon class="st0" points="220.2,130 220.2,117.9 225.1,117.9 225.1,119.1 221.6,119.1 221.6,122.9 224.7,122.9 224.7,124.1 
			221.6,124.1 221.6,128.7 225.1,128.7 225.1,130 		"/>
		<path class="st0" d="M173.5,30.3c0,0,0.2,0,0.4,0.1c0.3,0.1,0.7,0.2,1.2,0.3c0.5,0.1,1.2,0.3,1.9,0.5c0.7,0.2,1.5,0.5,2.4,0.8
			c0.4,0.2,1.2,0.3,1.3,0.3c0.2,0,0.2,0,0.5-0.1c0.9-0.3,1.9-0.6,3-0.9c1.1-0.3,2.1-0.7,3.2-1.1c1.1-0.4,2.2-0.7,3.1-1.2l0.3-0.1
			c0.1,0,0.1-0.1,0.2-0.1c0,0,0.1,0,0.1,0c0,0-0.1,0-0.1,0.1c0,0,0,0,0,0l0,0l0,0c-0.1,0.2,0.3-0.4-0.3,0.5l0,0l0,0l0,0c0,0,0,0,0,0
			l-0.1,0.1c-0.2,0.3-0.2,0.7-0.1,1.1c0,0.1,0,0.2,0,0.2l0,0.1c0,0.1,0,0.1,0.1,0.2c0,0.1,0.1,0.1,0.1,0.2l0.1,0.1
			c0,0.1,0.1,0.1,0.1,0.2c0,0,0,0,0,0l-0.1-0.1c-0.1-0.1-0.3-0.2-0.5-0.3c-0.8-0.5-1.9-1-2.8-1.4c-1-0.4-2-0.8-2.9-1.2
			c-0.9-0.4-1.8-0.7-2.7-1.1c-0.8-0.3-1.6-0.6-2.3-0.9c-0.7-0.3-1.3-0.5-1.8-0.7c-1-0.4-1.6-0.6-1.6-0.6l0,0c-0.1,0-0.1-0.1-0.1-0.2
			c0-0.1,0.1-0.1,0.1-0.1c0,0,0.6,0,1.7,0.1c1.1,0.1,2.6,0.3,4.3,0.8c1.8,0.4,3.8,1,6,1.7c1.1,0.4,2.2,0.8,3.3,1.3
			c0.3,0.1,0.5,0.3,0.8,0.5c0.1,0.1,0.3,0.2,0.4,0.3c0.1,0.1,0.2,0.3,0.3,0.5c0,0.1,0,0.2,0,0.2c0,0.1,0,0.1-0.1,0.1l0,0
			c-0.1,0.1,0,0,0,0.1l0,0l0,0l-0.1,0.1c-0.1,0.1-0.3,0.2-0.4,0.3c-0.3,0.2-0.5,0.3-0.8,0.4c-1.1,0.5-2.3,0.9-3.4,1.2
			c-1.1,0.3-2.3,0.6-3.4,0.9c-1.1,0.3-2.2,0.5-3.2,0.7c-0.2,0-0.5,0.1-0.8,0.1l-0.2,0c-0.1,0-0.1,0-0.2-0.1l-0.4-0.1
			c-0.4-0.2-0.9-0.4-1.3-0.6c-1.6-0.8-2.9-1.6-3.8-2.1c-0.9-0.5-1.4-0.8-1.4-0.8c-0.1,0-0.1-0.1,0-0.2
			C173.3,30.3,173.4,30.3,173.5,30.3L173.5,30.3z"/>
		<path class="st0" d="M283.3,116.8c0-0.2-0.1-0.4-0.1-0.7c-0.1-0.2-0.1-0.5-0.2-0.8c-0.1-0.3-0.1-0.6-0.2-0.9
			c-0.1-0.3-0.2-0.6-0.3-1c-0.5-1.4-1.2-3.1-2.4-4.9c-1.2-1.8-2.7-3.6-4.6-5.4c-1.9-1.8-4.2-3.4-6.7-5c-0.6-0.4-1.3-0.8-1.9-1.2
			c-0.7-0.4-1.3-0.8-2-1.2c-0.4-0.2-0.7-0.4-1.1-0.6c1.1-1.9,2.2-4,3.1-6.1c1.2-2.9,2.1-6,2.3-9.3c0.1-1.7,0-3.4-0.3-5
			c-0.1-0.4-0.2-0.8-0.3-1.2c-0.1-0.4-0.3-0.8-0.4-1.2c-0.2-0.4-0.3-0.8-0.5-1.2l-0.3-0.6l-0.1-0.1l0-0.1l0,0l-0.1-0.1l-0.1-0.2
			l-0.6-0.9l-0.3-0.5l-0.4-0.5c-0.5-0.7-1-1.4-1.5-1.9c-1-1.2-2.1-2.2-3.2-3.2c-2.2-2-13.9-10.3-14.7-10.8c0-0.4,0.4-5.6-4.4-16.4
			c-3.1-7-8.8-13.8-8.8-13.8s2.8-0.2,4.2-0.3c1.3-0.1,1.9,0,2-0.6c0-0.2-0.7-1.9-4-8.1c-3.6-6.7-7.2-12.2-8.2-12.7
			c-1-0.5-4.2,0-23.8,3.4c-28.9-8.3-61.2,5.5-67.6,9.3c-1.9,1.1-3,2.4-3,3.4c0,1.1,0.3,2.8,7,4.5c2.6,0.7,6.6,2.4,6.7,3.3
			c0,0.4-4.9-0.6-5.6-0.8c-2.6-0.6-4.8-1.2-6-1.1c-1.5,0.1-2.4,0.7-2.6,1.4c-0.2,0.7,0.2,2.5,11.3,6.7c7.1,2.7,19,6.1,27.7,7.9
			c8.8,1.8,20.7,2.5,28.8,2.9c0,1.2,0.3,6.5,1.7,6.8c0.9,0.2,2.2-2.8,3.1-5.2c0.1,0.5,0.2,1.1,0.3,1.7c0.1,0.4,0.2,0.8,0.4,1.2
			c0.1,0.4,0.3,0.8,0.5,1.3c0.1,0.2,0.2,0.5,0.4,0.8l0.2,0.2c0.1,0.1,0.2,0.2,0.3,0.3c0,0,0.1,0.1,0.2,0.2c0.1,0.1,0.2,0.1,0.2,0.2
			c0.1,0,0.2,0.2,0.4,0.2c0.1,0,0.2,0.1,0.3,0.1l0.1,0l0.1,0l0.1,0c0.4,0.1,0.9,0,1.3-0.1l0.1-0.1l0.1,0l0,0l0,0l0,0
			c-0.4,0.3,0.5-0.3,0.4-0.3l0,0l0,0l0.2-0.2c0.1-0.1,0.2-0.2,0.3-0.4c0.1-0.1,0.1-0.1,0.1-0.1l0.1-0.1c0.1-0.1,0.2-0.3,0.3-0.4
			l0.2-0.4c0.4-0.9,0.6-1.8,0.8-2.6c0.1-0.4,0.2-0.8,0.3-1.2c0.1-0.4,0.1-0.8,0.2-1.2c0,0,0-0.1,0-0.1c3.5,0.4,8.4,1.7,12.5,3.3
			c6.7,2.6,15,7.6,18.1,9.6c0,0.4,0,0.4-0.1,0.9c-0.3,2.8-1,5.6-1.6,8.7c-0.3,1.5-0.7,3.1-0.9,4.8c-0.3,1.6-0.4,3.4-0.5,5.1
			c-0.1,2,0.1,3.7,0.5,5.4l0.1,0.7l0,0.2l0,0.1l0,0c0-0.1,0,0.2,0,0.2l0.1,0.3l0.4,1.2c0.4,0.9,0.8,1.9,1.3,2.7
			c0.5,0.8,1,1.6,1.6,2.3c0.6,0.7,1.2,1.4,1.9,2c1.3,1.3,2.7,2.3,4.2,3.3c2.7,1.8,5.5,3.3,8.2,4.6c-0.4,0.7-0.8,1.4-1.2,2.1
			c-0.7,1.2-1.4,2.4-2,3.6c-0.6,1.2-1.1,2.4-1.5,3.7c-0.2,0.6-0.4,1.2-0.5,1.8c-0.1,0.3-0.1,0.6-0.2,0.9c0,0.3-0.1,0.6-0.1,0.9
			c-0.4,2.4-0.2,4.6,0.2,6.5c0.4,1.9,1,3.4,1.6,4.6c0.6,1.2,1.1,2.1,1.5,2.7c0.4,0.6,0.6,0.9,0.6,0.9s-0.1-0.4-0.4-1
			c-0.3-0.7-0.6-1.7-0.9-2.9c-0.4-1.3-0.6-2.8-0.8-4.6c-0.1-1.8,0.1-3.7,0.6-5.8c0.6-2.1,1.5-4.2,2.8-6.3c0.6-1.1,1.4-2.1,2.2-3.3
			c0.5-0.7,1-1.5,1.5-2.3c0.4,0.2,0.9,0.4,1.3,0.6c0.7,0.3,1.4,0.7,2,1c0.6,0.3,1.3,0.7,1.9,1c2.5,1.4,4.8,2.7,6.7,4.2
			c2,1.5,3.6,3,4.9,4.4c1.3,1.5,2.3,2.9,2.9,4.2c0.4,0.6,0.6,1.2,0.9,1.7c0.1,0.3,0.2,0.5,0.3,0.7c0.1,0.2,0.2,0.4,0.2,0.6
			c0.3,0.7,0.4,1.1,0.4,1.1S283.4,117.6,283.3,116.8 M225.9,41.2c-4.2-1.6-9-2.9-13.1-3.4c0,0,0,0,0-0.1l0-0.1l-0.1-0.2
			c-0.2-0.4-0.4-0.6-0.6-0.9c-0.4-0.5-0.8-0.9-1.2-1.3c-0.4-0.4-0.7-0.7-1-0.9c-0.3-0.3-0.5-0.4-0.7-0.6c-0.2-0.1-0.3-0.2-0.3-0.2
			l0,0c0,0-0.1,0-0.1,0c-0.1,0-0.1,0.1,0,0.2c0,0,0.2,0.4,0.5,1c0.3,0.6,0.8,1.5,1.4,2.6c0.1,0.3,0.3,0.6,0.4,0.8
			c0,0.1,0.1,0.1,0.1,0.2c0,0,0,0.1,0,0.1l0,0.1c0,0.2-0.1,0.3-0.1,0.5c-0.1,0.7-0.3,1.4-0.5,2.1c-0.2,0.7-0.4,1.5-0.6,2.3
			c-0.2,0.8-0.5,1.5-0.8,2.3c-0.1,0.2-0.2,0.4-0.3,0.5c-0.1,0.2-0.2,0.3-0.2,0.3c0,0-0.2-0.1-0.3-0.3c-0.1-0.1-0.2-0.3-0.3-0.5
			c-0.4-0.7-0.7-1.4-0.9-2.1c-0.5-1.4-0.9-2.8-1.2-4c-0.3-1.2-0.5-2.2-0.6-2.9c-0.1-0.7-0.1-1.1-0.1-1.1c0,0,0-0.1-0.1-0.1
			c-0.1,0-0.1,0-0.2,0.1l0,0c0,0,0,0.1-0.1,0.3c-0.1,0.2-0.2,0.5-0.2,0.9c0,0.2-0.1,0.4-0.1,0.6c-6.1,0.1-22.3,0-37-3.7
			c-1.7-0.4-3.3-1-3.3-1s4.3-1,8.1-5.8c1.9-2.5,1.6-5.2,1.6-5.6c-0.2-1.9-1.2-3.5-2.1-4.6c-0.9-1.1-2.6-2.5-2.7-2.5
			c-0.5,0.5,0.6,1.5,1.4,2.7c0.8,1.2,2.6,4,0.7,7.4c-3.2,5.7-13.2,6.9-13.2,6.9c-7.8-1.3-23.3-6.6-23.1-7.2c0.3-0.6,4,0.8,8,1.4
			c3.6,0.6,5.4,0.5,6-0.6c0.8-1.5-1.3-3.6-6.3-5.2c-2.8-0.9-7.1-2.1-7-3.5c0.2-2.3,10.8-5.8,23.1-9c11.4-2.9,28.2-4.4,44.1,0.2
			c14.8,4.3,26.8,13.8,34.7,26.2c4.9,7.7,5.9,16.8,5.9,17C240.3,48.9,232.3,43.6,225.9,41.2 M262.9,87.7c-0.8,2-1.7,3.9-2.6,5.8
			c-1.2-0.7-2.5-1.4-3.7-2.1c-0.7-0.4-1.4-0.8-2-1.2l-1-0.6l-1-0.7c-1.3-0.9-2.5-1.9-3.6-3c-0.6-0.5-1-1.1-1.5-1.7
			c-0.4-0.6-0.9-1.2-1.2-1.8l-0.3-0.5c-0.1-0.2-0.1-0.3-0.2-0.4c-0.1-0.3-0.3-0.6-0.4-0.9l-0.4-1.2l-0.1-0.2l0,0l0-0.1l0-0.1
			l-0.1-0.6c-0.3-1.5-0.5-3-0.5-4.5c0-3,0.5-6.1,1-9.2c0.5-2.9,0.9-5.8,1-8.7c0.1,0,0.1,0.1,0.2,0.1c1.8,1.3,3.8,2.8,5.8,4.3
			c2,1.6,4.1,3.3,6,5.2c1,1,1.9,2,2.8,3c0.5,0.5,0.8,1,1.2,1.6l0.3,0.4l0.3,0.5l0.6,1l0.1,0.2c0,0,0,0,0,0l0,0l0,0.1l0.1,0.1
			l0.2,0.4c0.1,0.3,0.2,0.6,0.4,0.9c0.1,0.3,0.2,0.6,0.3,0.9l0.2,0.9c0.2,1.3,0.3,2.6,0.2,4C264.7,82.3,263.9,85,262.9,87.7"/>
		<path class="st0" d="M153.2,13.9c-0.4,0-0.7,0.1-1.1,0.3c0.7,0,1.3,0.6,1.3,1.4c0,0.8-0.6,1.4-1.4,1.4c-0.5,0-0.9-0.3-1.2-0.7
			c0,1.2,1,2.2,2.3,2.2c1.3,0,2.3-1,2.3-2.3C155.5,14.9,154.5,13.9,153.2,13.9"/>
	</g>
	<g>
		<defs>
			<path id="SVGID_1_" d="M263.5,70.5L243,78c-0.6,0.2-1,0.9-0.7,1.6c0.2,0.5,0.7,0.8,1.2,0.8c0.1,0,0.3,0,0.4-0.1l20.5-7.5
				c0.6-0.2,1-0.9,0.7-1.6c-0.2-0.5-0.7-0.8-1.2-0.8C263.8,70.5,263.7,70.5,263.5,70.5"/>
		</defs>
		<use xlink:href="#SVGID_1_"  style="overflow:visible;fill:#FFFFFF;"/>
		<clipPath id="SVGID_2_">
			<use xlink:href="#SVGID_1_"  style="overflow:visible;"/>
		</clipPath>
		<polygon class="st1" points="238.9,71.6 262.6,63 268.5,79.2 244.8,87.8 		"/>
	</g>
	<g>
		<defs>
			<path id="SVGID_3_" d="M258.4,64.6l-15.7,5.7c-0.6,0.2-1,0.9-0.7,1.6c0.2,0.5,0.7,0.8,1.2,0.8c0.1,0,0.3,0,0.4-0.1l15.7-5.7
				c0.6-0.2,1-0.9,0.7-1.6c-0.2-0.5-0.7-0.8-1.2-0.8C258.7,64.5,258.5,64.6,258.4,64.6"/>
		</defs>
		<use xlink:href="#SVGID_3_"  style="overflow:visible;fill:#FFFFFF;"/>
		<clipPath id="SVGID_4_">
			<use xlink:href="#SVGID_3_"  style="overflow:visible;"/>
		</clipPath>
		<polygon class="st2" points="239.1,65.5 258,58.6 262.8,71.7 243.9,78.5 		"/>
	</g>
	<g>
		<defs>
			<path id="SVGID_5_" d="M252.7,58.8l-8.3,3.1c-0.6,0.2-1,0.9-0.7,1.6c0.2,0.5,0.7,0.8,1.2,0.8c0.1,0,0.3,0,0.4-0.1l8.3-3.1
				c0.6-0.2,1-0.9,0.7-1.6c-0.2-0.5-0.7-0.8-1.2-0.8C253,58.8,252.8,58.8,252.7,58.8"/>
		</defs>
		<use xlink:href="#SVGID_5_"  style="overflow:visible;fill:#FFFFFF;"/>
		<clipPath id="SVGID_6_">
			<use xlink:href="#SVGID_5_"  style="overflow:visible;"/>
		</clipPath>
		<polygon class="st3" points="241.6,59.4 253.2,55.2 256.3,63.6 244.7,67.8 		"/>
	</g>
	<g>
		<defs>
			<path id="SVGID_7_" d="M263.6,86l-10,3.7c-0.6,0.2-1,0.9-0.7,1.6c0.2,0.5,0.7,0.8,1.2,0.8c0.1,0,0.3,0,0.4-0.1l10-3.7
				c0.6-0.2,1-0.9,0.7-1.6c-0.2-0.5-0.7-0.8-1.2-0.8C263.9,85.9,263.8,86,263.6,86"/>
		</defs>
		<use xlink:href="#SVGID_7_"  style="overflow:visible;fill:#FFFFFF;"/>
		<clipPath id="SVGID_8_">
			<use xlink:href="#SVGID_7_"  style="overflow:visible;"/>
		</clipPath>
		<polygon class="st4" points="250.6,86.7 263.9,81.9 267.4,91.4 254.1,96.2 		"/>
	</g>
	<g>
		<defs>
			<path id="SVGID_9_" d="M264.9,78.1l-18.2,6.6c-0.6,0.2-1,0.9-0.7,1.6c0.2,0.5,0.7,0.8,1.2,0.8c0.1,0,0.3,0,0.4-0.1l18.2-6.6
				c0.6-0.2,1-0.9,0.7-1.6c-0.2-0.5-0.7-0.8-1.2-0.8C265.2,78,265,78.1,264.9,78.1"/>
		</defs>
		<use xlink:href="#SVGID_9_"  style="overflow:visible;fill:#FFFFFF;"/>
		<clipPath id="SVGID_10_">
			<use xlink:href="#SVGID_9_"  style="overflow:visible;"/>
		</clipPath>
		<polygon class="st5" points="242.8,79.1 264.2,71.4 269.6,86 248.2,93.7 		"/>
	</g>
	<g>
		<defs>
			<path id="SVGID_11_" d="M275,104.9l-20.9,7.5c-0.6,0.2-1,0.9-0.7,1.6c0.2,0.5,0.7,0.8,1.2,0.8c0.1,0,0.3,0,0.4-0.1l20.9-7.5
				c0.6-0.2,1-0.9,0.7-1.6c-0.2-0.5-0.7-0.8-1.2-0.8C275.3,104.8,275.2,104.8,275,104.9"/>
		</defs>
		<use xlink:href="#SVGID_11_"  style="overflow:visible;fill:#FFFFFF;"/>
		<clipPath id="SVGID_12_">
			<use xlink:href="#SVGID_11_"  style="overflow:visible;"/>
		</clipPath>
		<polygon class="st6" points="274.1,97.3 249.9,106 255.9,122.3 280.1,113.6 		"/>
	</g>
	<g>
		<defs>
			<path id="SVGID_13_" d="M268.2,99.6L256,104c-0.6,0.2-1,0.9-0.7,1.6c0.2,0.5,0.7,0.8,1.2,0.8c0.1,0,0.3,0,0.4-0.1l12.2-4.4
				c0.6-0.2,1-0.9,0.7-1.6c-0.2-0.5-0.7-0.8-1.2-0.8C268.4,99.5,268.3,99.5,268.2,99.6"/>
		</defs>
		<use xlink:href="#SVGID_13_"  style="overflow:visible;fill:#FFFFFF;"/>
		<clipPath id="SVGID_14_">
			<use xlink:href="#SVGID_13_"  style="overflow:visible;"/>
		</clipPath>
		<polygon class="st7" points="268.2,94.7 252.8,100.3 256.7,111.1 272.2,105.6 		"/>
	</g>
</g>
</svg>
